
<svg width="48" height="48" viewBox="0 0 48 48" fill="none" xmlns="http://www.w3.org/2000/svg">
<path fill-rule="evenodd" clip-rule="evenodd" d="M24 2C25.7358 2 27.1429 3.4071 27.1429 5.14286V20.8571H42.8571C44.5929 20.8571 46 22.2642 46 24C46 25.7358 44.5929 27.1429 42.8571 27.1429H27.1429V42.8571C27.1429 44.5929 25.7358 46 24 46C22.2642 46 20.8571 44.5929 20.8571 42.8571V27.1429H5.14286C3.4071 27.1429 2 25.7358 2 24C2 22.2642 3.40711 20.8571 5.14286 20.8571L20.8571 20.8571V5.14286C20.8571 3.4071 22.2642 2 24 2Z" fill="#111827"/>
</svg>
