
<svg width="48" height="48" viewBox="0 0 48 48" fill="none" xmlns="http://www.w3.org/2000/svg">
<path fill-rule="evenodd" clip-rule="evenodd" d="M24 46C36.1503 46 46 36.1503 46 24C46 11.8497 36.1503 2 24 2C11.8497 2 2 11.8497 2 24C2 36.1503 11.8497 46 24 46ZM20.4445 16.5555C19.3706 15.4815 17.6294 15.4815 16.5555 16.5555C15.4815 17.6294 15.4815 19.3706 16.5555 20.4445L20.1109 24L16.5555 27.5555C15.4815 28.6294 15.4815 30.3706 16.5555 31.4445C17.6294 32.5185 19.3706 32.5185 20.4445 31.4445L24 27.8891L27.5555 31.4445C28.6294 32.5185 30.3706 32.5185 31.4445 31.4445C32.5185 30.3706 32.5185 28.6294 31.4445 27.5555L27.8891 24L31.4445 20.4445C32.5185 19.3706 32.5185 17.6294 31.4445 16.5555C30.3706 15.4815 28.6294 15.4815 27.5555 16.5555L24 20.1109L20.4445 16.5555Z" fill="#111827"/>
</svg>
