
<svg width="48" height="48" viewBox="0 0 48 48" fill="none" xmlns="http://www.w3.org/2000/svg">
<path fill-rule="evenodd" clip-rule="evenodd" d="M1.5 8.25C1.5 4.52208 4.52208 1.5 8.25 1.5H29.25C32.9779 1.5 36 4.52208 36 8.25V12H39.75C43.4779 12 46.5 15.0221 46.5 18.75V39.75C46.5 43.4779 43.4779 46.5 39.75 46.5H18.75C15.0221 46.5 12 43.4779 12 39.75V36H8.25C4.52208 36 1.5 32.9779 1.5 29.25V8.25ZM15 39.75C15 41.8211 16.6789 43.5 18.75 43.5H39.75C41.8211 43.5 43.5 41.8211 43.5 39.75V18.75C43.5 16.6789 41.8211 15 39.75 15H18.75C16.6789 15 15 16.6789 15 18.75V39.75ZM33 12H18.75C15.0221 12 12 15.0221 12 18.75V33H8.25C6.17893 33 4.5 31.3211 4.5 29.25V8.25C4.5 6.17893 6.17893 4.5 8.25 4.5H29.25C31.3211 4.5 33 6.17893 33 8.25V12Z" fill="#111827"/>
</svg>
