
<svg width="48" height="48" viewBox="0 0 48 48" fill="none" xmlns="http://www.w3.org/2000/svg">
<path d="M33.4266 4.77816C36.1602 2.04449 40.5924 2.04449 43.3261 4.77816C46.0597 7.51183 46.0597 11.9439 43.3261 14.6776L36.255 21.7487L26.3555 11.8492L33.4266 4.77816Z" stroke="black" stroke-width="3"/>
<path d="M23.5271 16.0918L32.0123 24.5771L14.3781 42.2113C14.1123 42.4771 13.777 42.6626 13.4107 42.7465L6.88385 44.2423C6.7171 44.2805 6.55593 44.34 6.40431 44.4192L3.53476 45.9188C2.66686 46.3723 1.73178 45.4373 2.18533 44.5694L3.68491 41.6998C3.76415 41.5482 3.8236 41.387 3.86182 41.2203L5.35758 34.6935C5.44154 34.3271 5.62704 33.9918 5.89282 33.726L23.5271 16.0918Z" stroke="black" stroke-width="3"/>
<path d="M21.0397 10.0755C22.6018 8.51341 25.1345 8.51341 26.6966 10.0755L38.0103 21.3892C39.5724 22.9513 39.5724 25.484 38.0103 27.0461C36.4482 28.6082 33.9155 28.6082 32.3534 27.0461L21.0397 15.7324C19.4776 14.1703 19.4776 11.6376 21.0397 10.0755Z" fill="black"/>
</svg>
