
<svg width="48" height="48" viewBox="0 0 48 48" fill="none" xmlns="http://www.w3.org/2000/svg">
<path fill-rule="evenodd" clip-rule="evenodd" d="M20.583 9H39C41.7614 9 44 11.2386 44 14V34C44 36.7614 41.7614 39 39 39H20.583C19.225 39 17.9254 38.4476 16.983 37.4699L7.34446 27.4699C5.47779 25.5332 5.47779 22.4668 7.34446 20.5301L16.983 10.5301C17.9254 9.55237 19.225 9 20.583 9ZM22.9393 18.9393C23.5251 18.3536 24.4749 18.3536 25.0607 18.9393L28 21.8787L30.9393 18.9393C31.5251 18.3536 32.4749 18.3536 33.0607 18.9393C33.6464 19.5251 33.6464 20.4749 33.0607 21.0607L30.1213 24L33.0607 26.9393C33.6464 27.5251 33.6464 28.4749 33.0607 29.0607C32.4749 29.6464 31.5251 29.6464 30.9393 29.0607L28 26.1213L25.0607 29.0607C24.4749 29.6464 23.5251 29.6464 22.9393 29.0607C22.3536 28.4749 22.3536 27.5251 22.9393 26.9393L25.8787 24L22.9393 21.0607C22.3536 20.4749 22.3536 19.5251 22.9393 18.9393Z" fill="black"/>
</svg>
