
<svg width="48" height="48" viewBox="0 0 48 48" fill="none" xmlns="http://www.w3.org/2000/svg">
<path d="M37.8452 5.51886L5.41022 38.1375C4.63138 38.9207 4.63138 40.1906 5.41022 40.9739L6.82043 42.3921C7.59927 43.1753 8.86202 43.1753 9.64086 42.3921L42.0758 9.77346C42.8547 8.99021 42.8547 7.72031 42.0758 6.93706L40.6656 5.51886C39.8868 4.73561 38.624 4.73561 37.8452 5.51886Z" fill="black"/>
<path d="M10.1548 5.51886L42.5898 38.1375C43.3686 38.9207 43.3686 40.1906 42.5898 40.9739L41.1796 42.3921C40.4007 43.1753 39.138 43.1753 38.3591 42.3921L5.92417 9.77346C5.14533 8.99021 5.14533 7.72031 5.92417 6.93706L7.33438 5.51886C8.11323 4.73561 9.37598 4.73561 10.1548 5.51886Z" fill="black"/>
</svg>
