
<svg width="48" height="48" viewBox="0 0 48 48" fill="none" xmlns="http://www.w3.org/2000/svg">
<path d="M22.3636 4C21.2591 4 20.3636 4.89543 20.3636 6V8.36237C20.3636 9.27494 19.74 10.0582 18.8858 10.3791C18.5807 10.4937 18.2805 10.6182 17.9856 10.7523C17.1548 11.1301 16.1598 11.0173 15.5144 10.3719L13.8434 8.70087C13.0623 7.91983 11.796 7.91983 11.0149 8.70088L8.70077 11.015C7.91973 11.7961 7.91973 13.0624 8.70077 13.8435L10.3718 15.5145C11.0172 16.1599 11.1301 17.1549 10.7523 17.9858C10.6182 18.2806 10.4937 18.5808 10.3791 18.8858C10.0582 19.74 9.27494 20.3636 8.36237 20.3636H6C4.89543 20.3636 4 21.2591 4 22.3636V25.6364C4 26.7409 4.89543 27.6364 6 27.6364H8.36237C9.27494 27.6364 10.0582 28.2599 10.3791 29.1142C10.4937 29.4193 10.6182 29.7194 10.7523 30.0143C11.1301 30.8452 11.0173 31.8401 10.3719 32.4855L8.70077 34.1566C7.91972 34.9377 7.91972 36.204 8.70077 36.9851L11.0149 39.2992C11.796 40.0803 13.0623 40.0803 13.8434 39.2992L15.5145 37.6281C16.1599 36.9827 17.1548 36.8699 17.9857 37.2477C18.2806 37.3818 18.5807 37.5063 18.8858 37.6209C19.7401 37.9418 20.3636 38.7251 20.3636 39.6376V42C20.3636 43.1046 21.2591 44 22.3636 44H25.6364C26.7409 44 27.6364 43.1046 27.6364 42V39.6376C27.6364 38.7251 28.26 37.9418 29.1142 37.6209C29.4192 37.5064 29.7194 37.3818 30.0142 37.2477C30.8451 36.8699 31.8401 36.9828 32.4855 37.6282L34.1566 39.2993C34.9377 40.0804 36.204 40.0804 36.985 39.2993L39.2992 36.9851C40.0803 36.2041 40.0803 34.9378 39.2992 34.1567L37.6281 32.4856C36.9827 31.8402 36.8699 30.8452 37.2477 30.0144C37.3818 29.7195 37.5063 29.4193 37.6209 29.1142C37.9418 28.26 38.7251 27.6364 39.6376 27.6364H42C43.1046 27.6364 44 26.7409 44 25.6364V22.3636C44 21.2591 43.1046 20.3636 42 20.3636H39.6376C38.7251 20.3636 37.9418 19.7401 37.6209 18.8858C37.5063 18.5807 37.3818 18.2806 37.2477 17.9857C36.8699 17.1548 36.9827 16.1599 37.6281 15.5145L39.2992 13.8434C40.0803 13.0623 40.0803 11.796 39.2992 11.015L36.985 8.70079C36.204 7.91974 34.9377 7.91974 34.1566 8.70079L32.4855 10.3719C31.8401 11.0173 30.8452 11.1301 30.0143 10.7523C29.7194 10.6182 29.4193 10.4937 29.1142 10.3791C28.26 10.0582 27.6364 9.27494 27.6364 8.36237V6C27.6364 4.89543 26.7409 4 25.6364 4H22.3636Z" stroke="black" stroke-width="3"/>
<path d="M24.0003 31.273C28.0169 31.273 31.273 28.0169 31.273 24.0003C31.273 19.9836 28.0169 16.7275 24.0003 16.7275C19.9836 16.7275 16.7275 19.9836 16.7275 24.0003C16.7275 28.0169 19.9836 31.273 24.0003 31.273Z" stroke="black" stroke-width="3"/>
</svg>
